<svg xmlns="http://www.w3.org/2000/svg" width="42.782" height="42.762" viewBox="0 0 42.782 42.762">
  <path id="briefcase" d="M41.731,9.666H32.52V1.125H12.556V9.666H3.367a2.213,2.213,0,0,0-2.209,2.21v29.8a2.213,2.213,0,0,0,2.209,2.209H41.73a2.213,2.213,0,0,0,2.21-2.21v-29.8a2.213,2.213,0,0,0-2.21-2.21ZM15.411,3.98H29.665V9.666H15.411Zm25.537,8.678V19.82L36.2,24.565H24.044V20.4H21.052v4.169H8.894L4.15,19.82V12.658ZM4.15,40.895V24.052l3.5,3.5h13.4V31.77h2.992V27.557h13.4l3.5-3.5V40.895Z" transform="translate(-1.158 -1.125)" fill="#fff"/>
</svg>
