<svg xmlns="http://www.w3.org/2000/svg" width="22.901" height="21.469" viewBox="0 0 22.901 21.469">
  <g id="date-line" transform="translate(-2 -2)">
    <path id="Path_16570" data-name="Path 16570" d="M23.648,6H21.322V7.431h2.147V23.176H3.431V7.431H5.578V6H3.252A1.274,1.274,0,0,0,2,7.3V23.312a1.274,1.274,0,0,0,1.252,1.3h20.4a1.274,1.274,0,0,0,1.252-1.3V7.3A1.274,1.274,0,0,0,23.648,6Z" transform="translate(0 -1.137)" fill="#3a3a3a"/>
    <path id="Path_16571" data-name="Path 16571" d="M8,14H9.431v1.431H8Z" transform="translate(-1.706 -3.412)"/>
    <path id="Path_16572" data-name="Path 16572" d="M14,14h1.431v1.431H14Z" transform="translate(-3.412 -3.412)"/>
    <path id="Path_16573" data-name="Path 16573" d="M20,14h1.431v1.431H20Z" transform="translate(-5.118 -3.412)"/>
    <path id="Path_16574" data-name="Path 16574" d="M26,14h1.431v1.431H26Z" transform="translate(-6.825 -3.412)"/>
    <path id="Path_16575" data-name="Path 16575" d="M8,19H9.431v1.431H8Z" transform="translate(-1.706 -4.834)"/>
    <path id="Path_16576" data-name="Path 16576" d="M14,19h1.431v1.431H14Z" transform="translate(-3.412 -4.834)"/>
    <path id="Path_16577" data-name="Path 16577" d="M20,19h1.431v1.431H20Z" transform="translate(-5.118 -4.834)"/>
    <path id="Path_16578" data-name="Path 16578" d="M26,19h1.431v1.431H26Z" transform="translate(-6.825 -4.834)"/>
    <path id="Path_16579" data-name="Path 16579" d="M8,24H9.431v1.431H8Z" transform="translate(-1.706 -6.256)"/>
    <path id="Path_16580" data-name="Path 16580" d="M14,24h1.431v1.431H14Z" transform="translate(-3.412 -6.256)"/>
    <path id="Path_16581" data-name="Path 16581" d="M20,24h1.431v1.431H20Z" transform="translate(-5.118 -6.256)"/>
    <path id="Path_16582" data-name="Path 16582" d="M26,24h1.431v1.431H26Z" transform="translate(-6.825 -6.256)"/>
    <path id="Path_16583" data-name="Path 16583" d="M9.716,7.725a.716.716,0,0,0,.716-.716V2.716A.716.716,0,0,0,9,2.716V7.01A.716.716,0,0,0,9.716,7.725Z" transform="translate(-1.991)"/>
    <path id="Path_16584" data-name="Path 16584" d="M25.716,7.725a.716.716,0,0,0,.716-.716V2.716a.716.716,0,1,0-1.431,0V7.01A.716.716,0,0,0,25.716,7.725Z" transform="translate(-6.54)"/>
    <path id="Path_16585" data-name="Path 16585" d="M13,6h7.156V7.431H13Z" transform="translate(-3.128 -1.137)"/>
  </g>
</svg>
