<svg xmlns="http://www.w3.org/2000/svg" width="28.444" height="20" viewBox="0 0 28.444 20">
  <g id="Group_2745" data-name="Group 2745" transform="translate(-383.778 -392.354)">
    <path id="Path_3" data-name="Path 3" d="M0,182.667l14.222,12.5-1.592-6.982-4.242-5.518L4.375,181Z" transform="translate(383.778 217.187)" fill="#c2fb3b"/>
    <path id="Path_4" data-name="Path 4" d="M261.833,182.667l-4.2,5.435L256,195.167l14.222-12.5L265.639,181Z" transform="translate(142 217.187)" fill="#9cdd05"/>
    <path id="Path_5" data-name="Path 5" d="M156.833,181,151,182.667l5.833,12.5,5.833-12.5Z" transform="translate(241.167 217.187)" fill="#9cdd05"/>
    <path id="Path_6" data-name="Path 6" d="M256,181v14.167l5.833-12.5Z" transform="translate(142 217.187)" fill="#64c37d"/>
    <path id="Path_7" data-name="Path 7" d="M11.722,76H7.5L0,83.5H8.389l3.276-3.621Z" transform="translate(383.778 316.354)" fill="#9cdd05"/>
    <path id="Path_8" data-name="Path 8" d="M312.722,83.5l-7.5-7.5H301l.145,4.075,3.189,3.425Z" transform="translate(99.5 316.354)" fill="#64c37d"/>
    <path id="Path_9" data-name="Path 9" d="M159.333,76h-5L151,83.5h11.667Z" transform="translate(241.167 316.354)" fill="#c2fb3b"/>
    <path id="Path_10" data-name="Path 10" d="M258.5,76H256v7.5h5.833Z" transform="translate(142 316.354)" fill="#9cdd05"/>
  </g>
</svg>
