<svg xmlns="http://www.w3.org/2000/svg" width="19.009" height="22.178" viewBox="0 0 19.009 22.178">
  <g id="document-unknown" transform="translate(-4.5 -2.25)">
    <path id="Path_16588" data-name="Path 16588" d="M10.814,31.576a1.188,1.188,0,1,1-1.188-1.16,1.188,1.188,0,0,1,1.188,1.16Z" transform="translate(-1.165 -8.336)" fill="#3a3a3a"/>
    <path id="Path_16589" data-name="Path 16589" d="M9.252,24.8H7.668V21.627H9.252a1.584,1.584,0,1,0,0-3.168H7.668a1.586,1.586,0,0,0-1.584,1.584v.4H4.5v-.4a3.172,3.172,0,0,1,3.168-3.168H9.252a3.168,3.168,0,0,1,0,6.336Z" transform="translate(0 -4.328)" fill="#3a3a3a"/>
    <path id="Path_16590" data-name="Path 16590" d="M24.6,8.032,19.059,2.488A.72.72,0,0,0,18.5,2.25H10.584A1.589,1.589,0,0,0,9,3.834V10.17h1.584V3.834h6.336V8.586A1.589,1.589,0,0,0,18.5,10.17h4.752V22.843h-9.5v1.584h9.5a1.589,1.589,0,0,0,1.584-1.584V8.586a.721.721,0,0,0-.237-.554Zm-6.1.554V4.151L22.94,8.586Z" transform="translate(-1.332 0)" fill="#3a3a3a"/>
  </g>
</svg>
