<svg xmlns="http://www.w3.org/2000/svg" width="20.061" height="24.691" viewBox="0 0 20.061 24.691">
  <g id="flag-line" transform="translate(-5 -2)">
    <path id="Path_16586" data-name="Path 16586" d="M5.772,26.691A.772.772,0,0,1,5,25.919V2.772a.772.772,0,1,1,1.543,0V25.919A.772.772,0,0,1,5.772,26.691Z" fill="#3a3a3a"/>
    <path id="Path_16587" data-name="Path 16587" d="M25.628,3.413a.772.772,0,0,0-.772,0,11.5,11.5,0,0,1-4.73.9,10.116,10.116,0,0,1-4-1.15A9.861,9.861,0,0,0,12.272,2.04,8.379,8.379,0,0,0,9,2.665V4.385a6.79,6.79,0,0,1,3.279-.833,8.657,8.657,0,0,1,3.241.988,11.45,11.45,0,0,0,4.63,1.281,14.467,14.467,0,0,0,4.282-.633v9.9a12.469,12.469,0,0,1-4.305.718,10.116,10.116,0,0,1-4-1.15,9.861,9.861,0,0,0-3.858-1.119A8.379,8.379,0,0,0,9,14.192V15.9a6.79,6.79,0,0,1,3.279-.833,8.657,8.657,0,0,1,3.241.988,11.45,11.45,0,0,0,4.63,1.281,12.955,12.955,0,0,0,5.4-1.057.772.772,0,0,0,.424-.687V4.069A.772.772,0,0,0,25.628,3.413Z" transform="translate(-0.914 -0.009)" fill="#3a3a3a"/>
  </g>
</svg>
