<svg xmlns="http://www.w3.org/2000/svg" width="21.481" height="21.481" viewBox="0 0 21.481 21.481">
  <g id="percent" transform="translate(-4.5 -4.5)">
    <path id="Path_16569" data-name="Path 16569" d="M24.982,5.5a1.119,1.119,0,0,1,0,1.582l-17.9,17.9A1.119,1.119,0,1,1,5.5,23.4L23.4,5.5a1.119,1.119,0,0,1,1.582,0ZM8.975,11.66A2.685,2.685,0,1,0,6.29,8.975,2.685,2.685,0,0,0,8.975,11.66Zm0,1.79A4.475,4.475,0,1,0,4.5,8.975,4.475,4.475,0,0,0,8.975,13.45Zm12.531,10.74a2.685,2.685,0,1,0-2.685-2.685,2.685,2.685,0,0,0,2.685,2.685Zm0,1.79a4.475,4.475,0,1,0-4.475-4.475A4.475,4.475,0,0,0,21.506,25.981Z" transform="translate(0 0)" fill="#3a3a3a" fill-rule="evenodd"/>
  </g>
</svg>
