<svg xmlns="http://www.w3.org/2000/svg" width="42.764" height="42.762" viewBox="0 0 42.764 42.762">
  <g id="rocket" transform="translate(-2.248 -2.25)">
    <path id="Path_16404" data-name="Path 16404" d="M8.2,29.421,20.413,17.207l2.161,2.16L10.359,31.58Z" transform="translate(2.127 5.347)" fill="#fff"/>
    <path id="Path_16405" data-name="Path 16405" d="M25.159,45.012A1.523,1.523,0,0,1,23.646,43.7l-1.527-10.69,3.054-.428,1.146,8.049,4.948-3.986V25.158a1.527,1.527,0,0,1,.443-1.085l6.216-6.216a13.653,13.653,0,0,0,4.032-9.712V5.3H39.117A13.653,13.653,0,0,0,29.4,9.336l-6.216,6.216a1.527,1.527,0,0,1-1.083.443H10.62L6.634,20.973l8.049,1.146-.428,3.054L3.565,23.646a1.53,1.53,0,0,1-.977-2.475L8.7,13.535a1.527,1.527,0,0,1,1.191-.595H21.478l5.757-5.772A16.677,16.677,0,0,1,39.117,2.25h2.841A3.054,3.054,0,0,1,45.012,5.3V8.146a16.677,16.677,0,0,1-4.918,11.881l-5.772,5.757V37.376a1.527,1.527,0,0,1-.58,1.192l-7.636,6.109A1.527,1.527,0,0,1,25.159,45.012Z" transform="translate(0)" fill="#fff"/>
  </g>
</svg>
