<svg xmlns="http://www.w3.org/2000/svg" width="22.624" height="22.629" viewBox="0 0 22.624 22.629">
  <g id="Group_2744" data-name="Group 2744" transform="translate(-1127.612 -621.186)">
    <path id="Path_16400" data-name="Path 16400" d="M15.252,26.567A11.315,11.315,0,0,1,7.4,7.106.908.908,0,1,1,8.661,8.412a9.5,9.5,0,1,0,7.5-2.614V9.34a.911.911,0,1,1-1.822,0V4.848a.91.91,0,0,1,.911-.911,11.315,11.315,0,0,1,.006,22.629Z" transform="translate(1123.675 617.248)"/>
    <path id="Path_16401" data-name="Path 16401" d="M12.15,11.358,17.779,15.4a1.7,1.7,0,1,1-1.98,2.772,1.645,1.645,0,0,1-.4-.4L11.358,12.15a.568.568,0,0,1,.792-.792Z" transform="translate(1122.246 615.818)"/>
  </g>
</svg>
