<svg xmlns="http://www.w3.org/2000/svg" width="24.123" height="22.672" viewBox="0 0 24.123 22.672">
  <g id="thumbs-up-line" transform="translate(0 0)">
    <path id="Path_16591" data-name="Path 16591" d="M1.992,20.079c2.2,1.372,5.5,3.015,7.062,3.015h4.522a12.571,12.571,0,0,0,2.495-4.582,20.13,20.13,0,0,0,.995-5.969H10.282V5.006a1.545,1.545,0,0,0-.95-1.274A34.229,34.229,0,0,1,6.144,10.3a8.584,8.584,0,0,1-4.153,2.924V11.623A6.881,6.881,0,0,0,4.938,9.362C6.355,7.471,8.172,2.5,8.187,2.451a.754.754,0,0,1,.9-.46c1.01.286,2.706,1.206,2.706,3.015v6.029h6.029a.754.754,0,0,1,.754.754,21.855,21.855,0,0,1-1.055,7.25c-1.424,4.07-3.09,5.381-3.165,5.441a.754.754,0,0,1-.46.158H9.053c-1.831,0-4.936-1.507-7.062-2.736Z" transform="translate(5.544 -1.967)" fill="#3a3a3a"/>
    <path id="Path_16592" data-name="Path 16592" d="M26,26.565h5.275a.754.754,0,0,0,.754-.754V13.754A.754.754,0,0,0,31.275,13H26Zm4.522-1.507H27.507V14.507h3.015Z" transform="translate(-26 -4.685)" fill="#3a3a3a"/>
  </g>
</svg>
